<svg id="Capa_1" enable-background="new 0 0 512 512" height="512" viewBox="0 0 512 512" width="512" xmlns="http://www.w3.org/2000/svg"><path d="m341.576 379.96h-91.735c-17.558 0-31.791 14.233-31.791 31.791v60.958c0 17.558 14.233 31.791 31.791 31.791h91.735c17.558 0 31.791-14.233 31.791-31.791v-60.958c0-17.557-14.233-31.791-31.791-31.791z" fill="#8eafe2"/><path d="m233.439 416.213h124.54c5.357 0 10.542-.928 15.389-2.639v-1.823c0-17.558-14.234-31.791-31.791-31.791h-91.735c-17.558 0-31.791 14.233-31.791 31.791v1.823c4.845 1.711 10.031 2.639 15.388 2.639z" fill="#6a96d7"/><path d="m203.136 282.801-26.345 26.345c-6.004 6.004-15.739 6.004-21.743 0l-51.775-51.775c-13.279-13.279-13.279-34.809 0-48.088 13.279-13.279 34.809-13.279 48.088 0l51.775 51.775c6.004 6.004 6.004 15.739 0 21.743z" fill="#8eafe2"/><path d="m154.995 212.917v69.315c0 9.78.966 19.524 2.835 29.103 5.93 3.679 13.813 2.959 18.961-2.189l26.345-26.345c6.004-6.004 6.004-15.739 0-21.743z" fill="#6a96d7"/><path d="m203.475 27.974c-16.98 0-30.745 13.765-30.745 30.745v105.251c0 8.491 6.883 15.375 15.375 15.375h30.74c8.491 0 15.375-6.883 15.375-15.375v-105.252c-.001-16.98-13.766-30.744-30.745-30.744z" fill="#6a96d7"/><path d="m264.964 7.5c-16.98 0-30.745 13.765-30.745 30.745v125.725c0 8.491 6.883 15.375 15.375 15.375h30.74c8.491 0 15.375-6.883 15.375-15.375v-125.725c0-16.98-13.765-30.745-30.745-30.745z" fill="#8eafe2"/><path d="m326.453 35.86c-16.98 0-30.745 13.765-30.745 30.745v97.365c0 8.491 6.883 15.375 15.375 15.375h30.74c8.491 0 15.375-6.883 15.375-15.375v-97.365c0-16.98-13.765-30.745-30.745-30.745z" fill="#6a96d7"/><path d="m387.943 59.611c-16.98 0-30.745 13.765-30.745 30.745v73.614c0 8.491 6.884 15.375 15.375 15.375h30.74c8.491 0 15.375-6.883 15.375-15.375v-73.615c-.001-16.979-13.766-30.744-30.745-30.744z" fill="#8eafe2"/><path d="m357.979 393.952h-124.54c-20.667 0-38.827-13.707-44.492-33.583l-10.393-36.462c-3.864-13.555-5.824-27.581-5.824-41.676v-69.863c0-18.239 14.786-33.024 33.024-33.024h179.909c18.239 0 33.024 14.785 33.024 33.024v69.863c0 14.095-1.96 28.121-5.824 41.676l-10.393 36.462c-5.664 19.876-23.825 33.583-44.491 33.583z" fill="#a3defe"/><path d="m248.869 179.344h-43.116c-18.239 0-33.024 14.785-33.024 33.024v69.863c0 14.095 1.96 28.121 5.824 41.676l10.393 36.462c5.665 19.875 23.825 33.583 44.492 33.583h54.678c-49.87-54.733-45.515-158.55-39.247-214.608z" fill="#7acefa"/><ellipse cx="218.831" cy="294.395" fill="#fff" rx="28.366" ry="22.59"/><ellipse cx="372.586" cy="294.395" fill="#fff" rx="28.366" ry="22.59"/><path d="m221.861 111.159h-36.773c-4.142 0-7.5-3.358-7.5-7.5s3.358-7.5 7.5-7.5h36.773c4.142 0 7.5 3.358 7.5 7.5s-3.358 7.5-7.5 7.5z" fill="#8eafe2"/><path d="m283.351 94.592h-36.773c-4.142 0-7.5-3.358-7.5-7.5s3.358-7.5 7.5-7.5h36.773c4.143 0 7.5 3.358 7.5 7.5s-3.358 7.5-7.5 7.5z" fill="#6a96d7"/><path d="m344.84 119.769h-36.773c-4.143 0-7.5-3.358-7.5-7.5s3.357-7.5 7.5-7.5h36.773c4.143 0 7.5 3.358 7.5 7.5s-3.357 7.5-7.5 7.5z" fill="#8eafe2"/><path d="m406.329 131.718h-36.773c-4.143 0-7.5-3.358-7.5-7.5s3.357-7.5 7.5-7.5h36.773c4.143 0 7.5 3.358 7.5 7.5s-3.357 7.5-7.5 7.5z" fill="#6a96d7"/><path d="m426.187 163.97v-73.615c0-21.088-17.156-38.245-38.244-38.245-8.971 0-17.224 3.113-23.754 8.304-2.968-18.154-18.756-32.054-37.736-32.054-8.762 0-16.839 2.968-23.294 7.943-1.014-20.19-17.758-36.303-38.195-36.303-17.983 0-33.098 12.479-37.162 29.23-6.616-5.468-15.095-8.757-24.328-8.757-10.667 0-20.928 4.504-28.153 12.358-2.804 3.049-2.606 7.793.443 10.598 3.048 2.804 7.792 2.606 10.597-.442 4.392-4.775 10.629-7.514 17.113-7.514 12.817 0 23.245 10.428 23.245 23.245v105.252c0 4.342-3.533 7.874-7.875 7.874h-30.74c-4.342 0-7.875-3.533-7.875-7.874v-92.854c0-4.142-3.358-7.5-7.5-7.5s-7.5 3.358-7.5 7.5v92.853c0 8.556 4.725 16.026 11.7 19.948-7.229 7.322-11.7 17.372-11.7 28.45v.177l-8.565-8.566c-7.839-7.839-18.261-12.156-29.348-12.156-11.086 0-21.508 4.317-29.347 12.157-7.839 7.839-12.156 18.261-12.156 29.347s4.317 21.508 12.156 29.347l51.775 51.775c4.432 4.432 10.291 6.691 16.177 6.69 1.35 0 2.7-.13 4.036-.369.433 1.737.892 3.469 1.383 5.193l10.393 36.462c4.612 16.178 16.521 28.912 31.502 35.037-1.766 4.513-2.686 9.333-2.686 14.289v60.958c0 21.665 17.626 39.291 39.291 39.291h91.735c11.445 0 22.298-4.976 29.774-13.653 2.704-3.138 2.352-7.874-.786-10.578-3.135-2.703-7.871-2.352-10.577.786-4.625 5.367-11.335 8.445-18.411 8.445h-91.735c-13.394 0-24.291-10.897-24.291-24.291v-60.958c0-3.719.844-7.311 2.441-10.59 1.797.185 3.613.291 5.447.291h124.54c1.834 0 3.649-.106 5.447-.291 1.597 3.279 2.442 6.871 2.442 10.59v47.483c0 4.142 3.357 7.5 7.5 7.5s7.5-3.358 7.5-7.5v-47.483c0-4.955-.919-9.776-2.686-14.289 14.981-6.125 26.891-18.859 31.502-35.037l10.393-36.462c4.055-14.227 6.11-28.94 6.11-43.732v-69.863c0-11.078-4.472-21.127-11.7-28.45 6.976-3.921 11.702-11.391 11.702-19.947zm-265.836 139.873-51.775-51.775c-5.006-5.006-7.763-11.662-7.763-18.741s2.757-13.735 7.763-18.741c10.334-10.334 27.147-10.334 37.482 0l19.172 19.172v48.473c0 7.987.62 15.949 1.81 23.826-2.384.343-4.881-.407-6.689-2.214zm142.857-237.238c0-12.817 10.428-23.245 23.245-23.245 12.816 0 23.244 10.428 23.244 23.245v97.365c0 4.342-3.532 7.874-7.874 7.874h-30.74c-4.342 0-7.875-3.533-7.875-7.874zm-61.489-28.36c0-12.817 10.428-23.245 23.245-23.245 12.816 0 23.244 10.428 23.244 23.245v125.725c0 4.342-3.532 7.874-7.874 7.874h-30.74c-4.342 0-7.875-3.533-7.875-7.874zm169.468 243.986c0 13.401-1.862 26.731-5.536 39.621l-10.393 36.462c-4.722 16.567-20.052 28.138-37.279 28.138h-124.54c-17.228 0-32.557-11.571-37.279-28.138l-10.393-36.462c-1.195-4.194-2.179-8.438-2.989-12.713-.002-.014-.006-.028-.008-.043-1.674-8.848-2.54-17.838-2.54-26.864v-69.863c0-14.074 11.45-25.524 25.524-25.524h179.909c14.073 0 25.523 11.45 25.523 25.524v69.862zm0-118.261c0 4.342-3.532 7.874-7.874 7.874h-30.74c-4.343 0-7.875-3.533-7.875-7.874v-73.615c0-12.817 10.428-23.245 23.245-23.245 12.816 0 23.244 10.428 23.244 23.245zm-55.133 84.842c-11.58 0-21.002 9.421-21.002 21.002 0 4.142 3.357 7.5 7.5 7.5 4.142 0 7.5-3.358 7.5-7.5 0-3.309 2.692-6.001 6.002-6.001s6.002 2.692 6.002 6.001c0 4.142 3.357 7.5 7.5 7.5s7.5-3.358 7.5-7.5c0-11.581-9.422-21.002-21.002-21.002zm-41.096 31.128c-3.125-2.721-7.86-2.396-10.582.727-2.189 2.512-5.349 3.952-8.668 3.952s-6.479-1.44-8.667-3.952c-2.723-3.124-7.46-3.448-10.582-.727s-3.448 7.459-.727 10.582c5.038 5.782 12.319 9.098 19.976 9.098s14.939-3.316 19.977-9.098c2.722-3.123 2.395-7.861-.727-10.582zm-79.595-31.128c-11.581 0-21.002 9.421-21.002 21.002 0 4.142 3.358 7.5 7.5 7.5s7.5-3.358 7.5-7.5c0-3.309 2.692-6.001 6.002-6.001 3.309 0 6.002 2.692 6.002 6.001 0 4.142 3.358 7.5 7.5 7.5s7.5-3.358 7.5-7.5c0-11.581-9.422-21.002-21.002-21.002z"/></svg>